<?xml version="1.0" encoding="UTF-8"?>
<svg version="1.1" xmlns="http://www.w3.org/2000/svg" width="641" height="172">
<path d="M0 0 C0.9583374 0.00523682 1.9166748 0.01047363 2.90405273 0.01586914 C4.45576172 0.02070312 4.45576172 0.02070312 6.03881836 0.02563477 C7.12743164 0.03401367 8.21604492 0.04239258 9.33764648 0.05102539 C10.97636719 0.05779297 10.97636719 0.05779297 12.64819336 0.06469727 C15.35723144 0.07652713 18.06616248 0.09300996 20.77514648 0.11352539 C20.23145451 6.99839983 19.43607016 13.75487758 18.21264648 20.55102539 C17.4568918 24.77973646 16.77514648 28.79749686 16.77514648 33.11352539 C17.41581055 32.63141602 18.05647461 32.14930664 18.71655273 31.65258789 C20.01399414 30.70512695 20.01399414 30.70512695 21.33764648 29.73852539 C22.18456055 29.11204102 23.03147461 28.48555664 23.90405273 27.84008789 C31.96833884 22.99054441 42.54636865 22.58242916 51.57202148 24.80102539 C56.70745278 26.8689843 59.73745839 29.51096767 62.77514648 34.11352539 C66.92492491 44.62915137 64.61591195 55.90362686 62.52514648 66.67602539 C62.30060791 67.88097656 62.07606934 69.08592773 61.84472656 70.32739258 C61.16949507 73.925763 60.47630994 77.52012561 59.77514648 81.11352539 C59.46359619 82.71333252 59.46359619 82.71333252 59.14575195 84.34545898 C58.05007723 89.94106527 56.91784466 95.52700097 55.77514648 101.11352539 C47.85514648 101.11352539 39.93514648 101.11352539 31.77514648 101.11352539 C33.4462736 88.99785383 35.23440475 76.95058623 37.50463867 64.93164062 C39.58629646 55.81122058 39.58629646 55.81122058 37.55639648 47.16821289 C31.47570953 43.56780614 23.68112446 45.1905109 17.12280273 46.44555664 C11.33250205 50.55946412 10.92854567 61.82874981 9.73217773 68.49633789 C9.55885422 69.43661835 9.3855307 70.3768988 9.20695496 71.34567261 C8.66194287 74.30902451 8.12466234 77.27371515 7.58764648 80.23852539 C7.21641511 82.26466119 6.84467488 84.29070383 6.47241211 86.31665039 C5.56649592 91.24773984 4.67107997 96.18057096 3.77514648 101.11352539 C-4.14485352 101.11352539 -12.06485352 101.11352539 -20.22485352 101.11352539 C-19.30690076 91.86338604 -18.38517244 83.00316112 -16.10766602 73.98828125 C-15.02890501 69.25348703 -14.1997537 64.49738488 -13.38500977 59.71118164 C-13.12623299 58.20755569 -13.12623299 58.20755569 -12.86222839 56.67355347 C-12.31430094 53.48723973 -11.76939165 50.30041994 -11.22485352 47.11352539 C-10.87248901 45.05758726 -10.51995215 43.00167867 -10.16723633 40.94580078 C-9.99399841 39.9359462 -9.8207605 38.92609161 -9.64227295 37.88563538 C-8.94943509 33.85022077 -8.25504487 29.81507442 -7.56005859 25.7800293 C-7.20485945 23.71320493 -6.85106865 21.64613813 -6.49853516 19.57885742 C-5.98001323 16.54028594 -5.45647171 13.50261733 -4.93188477 10.46508789 C-4.77460403 9.53620758 -4.6173233 8.60732727 -4.45527649 7.65029907 C-4.30809677 6.80365692 -4.16091705 5.95701477 -4.00927734 5.0847168 C-3.88144363 4.33912506 -3.75360992 3.59353333 -3.62190247 2.8253479 C-3.02057168 0.23279206 -2.69962439 0.13775105 0 0 Z M14.77514648 34.11352539 C15.77514648 36.11352539 15.77514648 36.11352539 15.77514648 36.11352539 Z " fill="#000000" transform="translate(157.224853515625,64.886474609375)"/>
<path d="M0 0 C4.54380513 3.489558 7.06344893 8.13894203 8.1875 13.75 C9.34290171 24.51901306 6.77154197 35.28942983 4.82446289 45.82641602 C4.24467971 48.96631276 3.68071394 52.10875333 3.11914062 55.25195312 C2.7587167 57.2449554 2.39742101 59.23780026 2.03515625 61.23046875 C1.78041283 62.64273994 1.78041283 62.64273994 1.52052307 64.08354187 C1.36043259 64.94566788 1.2003421 65.80779388 1.03540039 66.69604492 C0.89550186 67.45705002 0.75560333 68.21805511 0.61146545 69.00212097 C0.1875 70.75 0.1875 70.75 -0.8125 71.75 C-8.24991633 72.85274707 -15.38592066 72.81798154 -22.8125 71.75 C-22.8125 69.44 -22.8125 67.13 -22.8125 64.75 C-23.33457031 65.14832031 -23.85664063 65.54664063 -24.39453125 65.95703125 C-32.94600838 72.11229763 -42.23825375 75.01412637 -52.8125 73.75 C-58.19864517 72.56453264 -63.01129996 70.88660005 -66.8125 66.75 C-69.79992167 61.72039555 -70.27172486 56.93526179 -69.4453125 51.203125 C-67.63129406 44.17100414 -62.86694774 38.60319577 -56.8125 34.75 C-48.58114689 31.29351348 -40.10784529 29.73337026 -31.3125 28.5 C-30.16007812 28.32726562 -29.00765625 28.15453125 -27.8203125 27.9765625 C-23.42528413 27.33113875 -19.26163101 26.75 -14.8125 26.75 C-14.9671875 24.831875 -14.9671875 24.831875 -15.125 22.875 C-15.21201172 21.79605469 -15.21201172 21.79605469 -15.30078125 20.6953125 C-15.68643036 18.35480784 -15.68643036 18.35480784 -18.8125 16.75 C-22.07183072 16.3549829 -22.07183072 16.3549829 -25.6875 16.375 C-26.90179688 16.34664062 -28.11609375 16.31828125 -29.3671875 16.2890625 C-33.4013261 16.82877719 -34.98988792 17.8705221 -37.8125 20.75 C-39.09258262 23.83777172 -39.09258262 23.83777172 -39.8125 26.75 C-41.39663359 28.33413359 -43.02227785 27.87979629 -45.21484375 27.8828125 C-46.10494141 27.88410156 -46.99503906 27.88539062 -47.91210938 27.88671875 C-48.84861328 27.88285156 -49.78511719 27.87898438 -50.75 27.875 C-51.68263672 27.87886719 -52.61527344 27.88273437 -53.57617188 27.88671875 C-54.46755859 27.88542969 -55.35894531 27.88414063 -56.27734375 27.8828125 C-57.098396 27.88168457 -57.91944824 27.88055664 -58.76538086 27.87939453 C-60.8125 27.75 -60.8125 27.75 -62.8125 26.75 C-60.79620571 15.40114359 -56.51624253 7.70179438 -46.9921875 1.03125 C-33.15267367 -7.10380472 -13.85428955 -8.80052355 0 0 Z M-30.125 44.0625 C-31.07568359 44.18044922 -32.02636719 44.29839844 -33.00585938 44.41992188 C-39.89565432 45.29606445 -39.89565432 45.29606445 -45.8125 48.75 C-46.23030879 51.37694422 -46.23030879 51.37694422 -45.8125 53.75 C-42.90249203 55.20500399 -40.3035667 54.95897384 -37.0625 55 C-35.24492187 55.03867188 -35.24492187 55.03867188 -33.390625 55.078125 C-26.985874 54.49078976 -22.92717709 51.5700503 -18.8125 46.75 C-17.95130866 44.57653432 -17.95130866 44.57653432 -17.8125 42.75 C-21.93705124 42.75 -26.0436082 43.5130293 -30.125 44.0625 Z " fill="#000000" transform="translate(520.8125,94.25)"/>
<path d="M0 0 C4.77991876 3.86256061 6.72469055 8.61157165 8.625 14.3125 C8.77300918 16.47571108 8.84622021 18.64442237 8.875 20.8125 C8.90078125 21.9571875 8.9265625 23.101875 8.953125 24.28125 C8.625 28.3125 8.625 28.3125 5.625 39.3125 C-11.535 39.3125 -28.695 39.3125 -46.375 39.3125 C-45.42144903 47.81675336 -45.42144903 47.81675336 -42 50.375 C-35.41542322 52.07790779 -27.47339884 52.81088824 -21.375 49.3125 C-20.715 47.6625 -20.055 46.0125 -19.375 44.3125 C-11.785 44.3125 -4.195 44.3125 3.625 44.3125 C5.02940088 48.52570265 3.68038485 50.71098178 1.96875 54.68359375 C-2.52880037 63.48258037 -9.27325181 67.83208308 -18.375 71.3125 C-30.46414447 74.86913656 -45.40599968 75.09497359 -56.7265625 69.05859375 C-62.47171242 65.11014802 -66.17763149 59.90460552 -68.375 53.3125 C-69.92082248 37.77600573 -68.08595131 23.20364803 -58.3125 10.5234375 C-44.18427883 -5.59868585 -18.91557315 -12.6910701 0 0 Z M-41.375 19.3125 C-42.035 20.9625 -42.695 22.6125 -43.375 24.3125 C-33.805 24.3125 -24.235 24.3125 -14.375 24.3125 C-13.73278014 18.57620722 -13.73278014 18.57620722 -16.3125 16 C-24.47786121 11.50071934 -34.75783501 12.50071251 -41.375 19.3125 Z " fill="#000000" transform="translate(69.375,94.6875)"/>
<path d="M0 0 C5.55850009 4.6226877 8.29021606 9.88868481 9.09375 17.06640625 C9.27531434 24.56350061 8.66479997 31.49560889 5.6875 38.4375 C4.6875 39.4375 4.6875 39.4375 2.63108826 39.55775452 C1.72729935 39.55553391 0.82351044 39.55331329 -0.10766602 39.55102539 C-1.12864883 39.55094986 -2.14963165 39.55087433 -3.20155334 39.55079651 C-4.3119548 39.54563522 -5.42235626 39.54047394 -6.56640625 39.53515625 C-7.69698959 39.5337413 -8.82757294 39.53232635 -9.99241638 39.53086853 C-13.61997065 39.52525019 -17.24746424 39.51269458 -20.875 39.5 C-23.32747307 39.49498736 -25.7799471 39.49042405 -28.23242188 39.48632812 C-34.25913545 39.4752748 -40.28581339 39.45851884 -46.3125 39.4375 C-46.04008352 40.89671298 -45.75352 42.35329009 -45.4609375 43.80859375 C-45.30286621 44.61997803 -45.14479492 45.4313623 -44.98193359 46.26733398 C-44.44375522 48.69028137 -44.44375522 48.69028137 -41.9375 50.5 C-35.29732047 52.21728781 -27.48433578 52.88248759 -21.3125 49.4375 C-20.94511719 48.57769531 -20.57773437 47.71789062 -20.19921875 46.83203125 C-18.3125 44.4375 -18.3125 44.4375 -16.02197266 44.03271484 C-13.04231456 43.94433296 -10.10342946 44.00316368 -7.125 44.125 C-6.08923828 44.14755859 -5.05347656 44.17011719 -3.98632812 44.19335938 C-1.42693596 44.25233154 1.12955951 44.33457433 3.6875 44.4375 C5.09103023 48.64809068 3.74063435 50.82994824 2.04296875 54.8046875 C-1.78421127 62.2384608 -7.50227358 67.46217565 -15.3125 70.4375 C-28.72409255 74.16210801 -43.88851877 75.98658454 -56.66796875 69.18359375 C-63.67872539 64.35629978 -67.14436795 58.62341307 -68.75 50.3125 C-70.32973526 37.158166 -67.23230208 23.05446796 -59.5625 12.125 C-45.4004119 -4.95599175 -19.77479377 -12.92685593 0 0 Z M-41.3125 19.4375 C-41.9725 21.0875 -42.6325 22.7375 -43.3125 24.4375 C-33.7425 24.4375 -24.1725 24.4375 -14.3125 24.4375 C-13.67028014 18.70120722 -13.67028014 18.70120722 -16.25 16.125 C-24.41536121 11.62571934 -34.69533501 12.62571251 -41.3125 19.4375 Z " fill="#000000" transform="translate(292.3125,94.5625)"/>
<path d="M0 0 C6.05416337 5.92318387 7.40493644 11.1809562 7.5 19.625 C7.51023193 20.32020752 7.52046387 21.01541504 7.53100586 21.73168945 C7.42752668 27.96866189 5.98028996 31.85736681 4.0625 38.25 C-12.7675 38.25 -29.5975 38.25 -46.9375 38.25 C-46.6075 41.55 -46.2775 44.85 -45.9375 48.25 C-39.57529049 51.07764867 -31.96188303 51.3044235 -25.25390625 49.546875 C-22.72278177 48.40992498 -22.72278177 48.40992498 -21.62548828 45.69946289 C-19.9375 43.25 -19.9375 43.25 -17.4855957 42.68237305 C-16.53773193 42.70855713 -15.58986816 42.73474121 -14.61328125 42.76171875 C-13.07124023 42.78588867 -13.07124023 42.78588867 -11.49804688 42.81054688 C-9.89026367 42.87338867 -9.89026367 42.87338867 -8.25 42.9375 C-7.16654297 42.96005859 -6.08308594 42.98261719 -4.96679688 43.00585938 C-2.28898095 43.0648421 0.38607027 43.14709693 3.0625 43.25 C1.86189457 52.8663877 -1.02236866 58.25474391 -8.51953125 64.4921875 C-19.52913559 72.49593864 -33.98808181 73.69036589 -47.1484375 71.78515625 C-55.4040061 70.02798863 -60.88051029 66.8701194 -66.3125 60.4375 C-72.25666598 48.77778981 -70.53760012 35.39524342 -66.9375 23.25 C-61.79480925 9.95269994 -53.83919301 1.32138495 -40.9375 -4.75 C-28.39818174 -9.80181167 -10.70527073 -8.24869282 0 0 Z M-40.61328125 16.71875 C-43.19321744 19.59554992 -43.19321744 19.59554992 -43.9375 23.25 C-34.3675 23.25 -24.7975 23.25 -14.9375 23.25 C-15.14234909 16.60371386 -15.14234909 16.60371386 -17.9375 14.375 C-25.54688637 11.52148011 -34.12956489 11.03605221 -40.61328125 16.71875 Z " fill="#000000" transform="translate(443.9375,95.75)"/>
<path d="M0 0 C6.78369611 5.37042608 10.82894328 11.54264297 12.15625 20.23046875 C12.93094816 29.95540308 9.23891034 37.84410634 3.3671875 45.3984375 C-7.37812021 57.94728626 -22.45860951 66.47610491 -38.65625 69.85546875 C-39.64625 69.52546875 -40.63625 69.19546875 -41.65625 68.85546875 C-40.6353125 67.86546875 -40.6353125 67.86546875 -39.59375 66.85546875 C-32.03872531 59.2358712 -25.74309199 52.14492752 -25.65625 40.85546875 C-26.48576867 33.38980068 -29.836441 28.58518969 -35.65625 23.85546875 C-48.41843284 16.76723791 -62.69387183 16.71817325 -76.65625 19.85546875 C-82.83237616 21.78735157 -88.9142654 24.20187637 -94.4609375 27.546875 C-96.65625 28.85546875 -96.65625 28.85546875 -98.65625 28.85546875 C-96.70236284 21.03992011 -91.45610018 15.23093965 -85.65625 9.85546875 C-85.21410156 9.40816406 -84.77195312 8.96085937 -84.31640625 8.5 C-63.10052297 -11.63619456 -24.25930424 -16.73178484 0 0 Z " fill="#000000" transform="translate(628.65625,11.14453125)"/>
<path d="M0 0 C6.27 0 12.54 0 19 0 C18.49259359 6.17344462 17.73254212 10.9361026 16 17 C22.93 17 29.86 17 37 17 C36.690625 19.5575 36.38125 22.115 36.0625 24.75 C35.96718994 25.54889648 35.87187988 26.34779297 35.77368164 27.17089844 C35.35971735 30.53515275 34.82370195 33.70519221 34 37 C27.07 37 20.14 37 13 37 C12.286512 41.52045609 11.57394614 46.0410371 10.86376953 50.56201172 C10.62180605 52.10050971 10.3792955 53.63892176 10.13623047 55.17724609 C9.78730304 57.38617032 9.44033292 59.59539436 9.09375 61.8046875 C8.9843811 62.49432587 8.87501221 63.18396423 8.7623291 63.89450073 C8.19503894 67.43050541 8.19503894 67.43050541 8 71 C14.27 71.33 20.54 71.66 27 72 C26.07809847 85.52122241 26.07809847 85.52122241 24 92 C16.04021337 95.97989331 1.1275739 94.64390958 -7 92 C-11.64563307 89.76768281 -14.99622377 86.94268845 -17.125 82.1875 C-20.57471282 68.78926052 -14.52221453 51.21101687 -12 38 C-15.63 37.67 -19.26 37.34 -23 37 C-22.41629364 30.19009243 -21.43213506 23.68329695 -20 17 C-15.71 17 -11.42 17 -7 17 C-6.34 15.02 -5.68 13.04 -5 11 C-3.40507094 7.29783133 -1.6952445 3.65815919 0 0 Z " fill="#000000" transform="translate(108,73)"/>
<path d="M0 0 C4.67925815 3.47944837 7.14965471 7.12451662 8.4375 12.8125 C9.00437633 19.62682583 8.2606865 26.22507431 6.4375 32.8125 C5.4375 33.8125 5.4375 33.8125 3.30444336 33.92602539 C1.92977905 33.91817017 1.92977905 33.91817017 0.52734375 33.91015625 C-0.46201172 33.90693359 -1.45136719 33.90371094 -2.47070312 33.90039062 C-3.51162109 33.89201172 -4.55253906 33.88363281 -5.625 33.875 C-6.66978516 33.87048828 -7.71457031 33.86597656 -8.79101562 33.86132812 C-11.3815666 33.84949913 -13.97200559 33.83301689 -16.5625 33.8125 C-17.56746852 30.79759443 -17.66585303 28.77068308 -17.625 25.625 C-17.61597656 24.72394531 -17.60695313 23.82289062 -17.59765625 22.89453125 C-17.58605469 22.20746094 -17.57445312 21.52039063 -17.5625 20.8125 C-20.69891748 19.24429126 -24.13429483 19.43086961 -27.5625 19.8125 C-30.03722861 20.74434686 -31.27224628 21.2748109 -32.54647827 23.63529968 C-34.21093409 29.22120783 -35.42791521 34.76577228 -36.3515625 40.51953125 C-36.5003183 41.40734787 -36.6490741 42.29516449 -36.80233765 43.20988464 C-37.27087517 46.01384146 -37.72958281 48.81929116 -38.1875 51.625 C-38.65454213 54.44819745 -39.12362409 57.27104416 -39.59408569 60.09367371 C-39.8847766 61.84173664 -40.17314762 63.59018737 -40.45889282 65.33906555 C-40.65447281 66.52631477 -40.65447281 66.52631477 -40.85400391 67.73754883 C-40.96708893 68.42988113 -41.08017395 69.12221344 -41.19668579 69.83552551 C-41.56853092 71.845093 -42.06683466 73.82983862 -42.5625 75.8125 C-50.4825 75.8125 -58.4025 75.8125 -66.5625 75.8125 C-65.9015281 69.86375289 -65.1557178 64.07683698 -64.07421875 58.2109375 C-63.93092636 57.41937256 -63.78763397 56.62780762 -63.63999939 55.81225586 C-63.17934533 53.27017571 -62.71466259 50.72885016 -62.25 48.1875 C-61.61464705 44.6877241 -60.9812705 41.18759103 -60.34765625 37.6875 C-60.19242493 36.83175385 -60.0371936 35.97600769 -59.8772583 35.09432983 C-58.45032296 27.21998925 -57.07192466 19.3378379 -55.7175293 11.45068359 C-55.57613525 10.62906738 -55.43474121 9.80745117 -55.2890625 8.9609375 C-55.17127441 8.27177246 -55.05348633 7.58260742 -54.93212891 6.87255859 C-54.50876383 4.51301135 -54.03263505 2.16317527 -53.5625 -0.1875 C-46.3025 -0.1875 -39.0425 -0.1875 -31.5625 -0.1875 C-31.5625 2.7825 -31.5625 5.7525 -31.5625 8.8125 C-30.98242188 8.25820312 -30.40234375 7.70390625 -29.8046875 7.1328125 C-29.02351563 6.40835938 -28.24234375 5.68390625 -27.4375 4.9375 C-26.28894531 3.85855469 -26.28894531 3.85855469 -25.1171875 2.7578125 C-18.13087925 -2.5620369 -8.11767827 -2.70589276 0 0 Z " fill="#000000" transform="translate(364.5625,90.1875)"/>
<path d="M0 0 C7.59 0 15.18 0 23 0 C23.94861415 3.79445659 23.99616643 5.18427923 23.30664062 8.85229492 C23.12871475 9.8221785 22.95078888 10.79206207 22.76747131 11.79133606 C22.46491676 13.36995674 22.46491676 13.36995674 22.15625 14.98046875 C21.95160629 16.08593552 21.74696259 17.19140228 21.53611755 18.33036804 C20.86471837 21.95081422 20.18226127 25.56908658 19.5 29.1875 C18.5700968 34.18283284 17.64614543 39.17925916 16.72265625 44.17578125 C16.49058975 45.42746094 16.25852325 46.67914063 16.01942444 47.96875 C13.55133084 61.32764745 11.28520114 74.71893058 9.0703125 88.12182617 C8.9356105 88.92787796 8.80090851 89.73392975 8.66212463 90.56440735 C8.41292954 92.05575354 8.16705737 93.54766035 7.92515564 95.04020691 C7.11274374 99.88725626 7.11274374 99.88725626 6 101 C4.21928754 101.08726223 2.4351686 101.10699041 0.65234375 101.09765625 C-0.42724609 101.09443359 -1.50683594 101.09121094 -2.61914062 101.08789062 C-3.75544922 101.07951172 -4.89175781 101.07113281 -6.0625 101.0625 C-7.20267578 101.05798828 -8.34285156 101.05347656 -9.51757812 101.04882812 C-12.34510351 101.03699747 -15.1725264 101.0205141 -18 101 C-17.83508057 100.0605957 -17.67016113 99.12119141 -17.50024414 98.15332031 C-16.84030367 94.39309106 -16.18105336 90.63274106 -15.52206421 86.87234497 C-15.21552859 85.12320497 -14.90890822 83.37407982 -14.60220337 81.62496948 C-12.58429884 70.11367885 -10.58322832 58.59961795 -8.6015625 47.08203125 C-8.19654246 44.73079268 -7.79151319 42.37955569 -7.38647461 40.02832031 C-6.78921407 36.56073059 -6.19272728 33.0930168 -5.59866333 29.62487793 C-5.04033774 26.36547325 -4.47937076 23.10653224 -3.91796875 19.84765625 C-3.75362335 18.88350296 -3.58927795 17.91934967 -3.41995239 16.92597961 C-3.26227386 16.01333847 -3.10459534 15.10069733 -2.94213867 14.16040039 C-2.8078093 13.37725967 -2.67347992 12.59411896 -2.53507996 11.7872467 C-1.77738513 7.84039279 -0.87182722 3.92322247 0 0 Z " fill="#000000" transform="translate(543,65)"/>
<path d="" fill="#FFFFFF" transform="translate(0,0)"/>
<path d="" fill="#FFFFFF" transform="translate(0,0)"/>
<path d="" fill="#FFFFFF" transform="translate(0,0)"/>
<path d="" fill="#FFFFFF" transform="translate(0,0)"/>
<path d="" fill="#FFFFFF" transform="translate(0,0)"/>
<path d="" fill="#FFFFFF" transform="translate(0,0)"/>
<path d="" fill="#FFFFFF" transform="translate(0,0)"/>
<path d="" fill="#FFFFFF" transform="translate(0,0)"/>
<path d="" fill="#FFFFFF" transform="translate(0,0)"/>
<path d="" fill="#FFFFFF" transform="translate(0,0)"/>
<path d="" fill="#FFFFFF" transform="translate(0,0)"/>
<path d="" fill="#FFFFFF" transform="translate(0,0)"/>
<path d="" fill="#FFFFFF" transform="translate(0,0)"/>
<path d="" fill="#FFFFFF" transform="translate(0,0)"/>
<path d="" fill="#FFFFFF" transform="translate(0,0)"/>
<path d="" fill="#FFFFFF" transform="translate(0,0)"/>
<path d="" fill="#FFFFFF" transform="translate(0,0)"/>
<path d="" fill="#FFFFFF" transform="translate(0,0)"/>
<path d="" fill="#FFFFFF" transform="translate(0,0)"/>
<path d="" fill="#FFFFFF" transform="translate(0,0)"/>
<path d="" fill="#FFFFFF" transform="translate(0,0)"/>
<path d="" fill="#FFFFFF" transform="translate(0,0)"/>
<path d="" fill="#FFFFFF" transform="translate(0,0)"/>
<path d="" fill="#FFFFFF" transform="translate(0,0)"/>
<path d="" fill="#FFFFFF" transform="translate(0,0)"/>
</svg>
