<?xml version="1.0" standalone="no"?>
<!DOCTYPE svg PUBLIC "-//W3C//DTD SVG 20010904//EN"
 "http://www.w3.org/TR/2001/REC-SVG-20010904/DTD/svg10.dtd">
<svg version="1.0" xmlns="http://www.w3.org/2000/svg"
 width="4314.000000pt" height="1440.000000pt" viewBox="0 0 4314.000000 1440.000000"
 preserveAspectRatio="xMidYMid meet">

<g transform="translate(0.000000,1440.000000) scale(0.100000,-0.100000)"
fill="#422100" stroke="none">
<path d="M35095 13853 c-1277 -84 -2479 -783 -2922 -1698 -48 -100 -61 -135
-49 -135 3 0 52 31 111 69 129 84 339 192 503 260 599 246 1269 314 1852 189
328 -70 649 -231 851 -425 115 -111 176 -192 239 -318 215 -429 127 -922 -247
-1385 -77 -95 -264 -277 -371 -359 -45 -36 -80 -66 -78 -68 7 -7 160 26 312
68 1132 310 2019 1067 2219 1892 98 404 17 804 -231 1133 -72 96 -249 264
-364 347 -118 83 -366 209 -525 266 -227 80 -508 138 -774 160 -122 10 -404
12 -526 4z"/>
<path d="M13285 10633 c-3 -21 -201 -1142 -439 -2491 -238 -1349 -430 -2455
-427 -2457 2 -3 253 -5 557 -5 l552 0 6 28 c3 15 89 502 191 1082 102 580 196
1100 210 1155 29 115 106 278 162 345 122 148 285 218 560 241 152 13 361 1
467 -27 234 -62 325 -220 296 -511 -6 -56 -98 -596 -204 -1200 -107 -604 -191
-1101 -187 -1106 4 -4 257 -6 561 -5 l555 3 217 1230 c225 1275 245 1415 233
1594 -40 568 -350 904 -906 981 -110 16 -362 16 -468 1 -277 -40 -543 -149
-769 -316 -82 -60 -239 -211 -289 -277 -21 -26 -45 -48 -55 -48 -10 0 -18 3
-18 6 0 8 309 1763 315 1792 l5 22 -559 0 -559 0 -7 -37z"/>
<path d="M32320 8208 c-239 -1355 -436 -2478 -438 -2495 l-4 -33 556 0 556 0
5 23 c3 12 199 1120 435 2462 237 1342 433 2455 436 2473 l6 32 -559 0 -558 0
-435 -2462z"/>
<path d="M10775 9865 l-180 -435 -312 0 -311 0 -6 -27 c-12 -54 -156 -878
-156 -890 0 -10 66 -13 296 -13 l296 0 -6 -27 c-23 -108 -287 -1628 -296
-1706 -17 -136 -8 -358 19 -462 36 -139 92 -237 190 -335 93 -93 171 -143 296
-191 293 -114 779 -139 1280 -68 77 11 155 23 174 27 l35 8 77 439 c43 242 80
452 83 468 l6 27 -298 0 c-526 0 -635 21 -693 130 -29 55 -16 159 121 933
l134 757 527 0 527 0 6 28 c12 58 156 883 156 892 0 6 -191 10 -525 10 -289 0
-525 2 -525 5 0 2 34 195 75 428 41 233 75 427 75 431 0 3 -199 6 -442 6
l-443 0 -180 -435z"/>
<path d="M7694 9500 c-468 -32 -895 -193 -1234 -467 -100 -81 -281 -269 -357
-369 -340 -455 -525 -1065 -510 -1684 5 -233 24 -352 83 -523 145 -419 486
-698 972 -796 191 -39 272 -46 537 -45 367 0 607 35 894 130 268 88 492 218
669 389 127 122 205 224 275 364 73 143 137 347 137 437 l0 24 -552 -2 -551
-3 -12 -55 c-35 -169 -156 -258 -405 -295 -110 -17 -420 -20 -525 -5 -275 40
-413 142 -460 342 -15 64 -20 268 -9 327 l6 31 1281 2 1281 3 34 105 c94 291
133 496 139 736 6 201 -6 311 -52 468 -124 429 -473 728 -976 839 -197 44
-445 61 -665 47z m189 -934 c293 -48 437 -183 439 -411 0 -44 -3 -99 -7 -123
l-7 -42 -764 0 c-420 0 -764 2 -764 3 0 2 9 29 19 60 82 239 246 404 471 476
150 48 436 65 613 37z"/>
<path d="M18864 9500 c-1198 -79 -2025 -992 -2103 -2324 -24 -406 52 -748 222
-1001 52 -78 184 -213 267 -275 178 -132 422 -223 716 -267 168 -24 596 -24
779 1 757 103 1270 433 1492 959 37 87 78 234 89 317 l7 50 -553 -2 -552 -3
-17 -68 c-38 -147 -135 -226 -340 -273 -92 -22 -464 -30 -585 -14 -279 38
-422 147 -467 355 -13 61 -16 288 -4 325 6 20 12 20 1285 20 l1279 0 41 126
c88 272 130 487 137 714 13 412 -106 736 -360 977 -298 283 -774 419 -1333
383z m161 -930 c227 -33 365 -112 431 -246 31 -63 41 -159 29 -268 l-7 -66
-764 0 c-605 0 -764 3 -764 13 1 22 68 176 101 230 118 192 304 302 571 336
91 12 321 12 403 1z"/>
<path d="M23160 9499 c-298 -27 -564 -151 -792 -367 -88 -85 -201 -214 -235
-273 -19 -32 -53 -39 -53 -11 0 9 23 143 50 297 27 154 50 281 50 283 0 1
-234 2 -519 2 -486 0 -520 -1 -525 -17 -6 -21 -656 -3709 -656 -3723 0 -7 201
-9 557 -8 l557 3 211 1195 c116 657 219 1227 229 1265 41 163 132 292 246 347
78 37 191 58 320 58 209 0 315 -42 366 -147 28 -55 29 -64 28 -183 -1 -86 -9
-166 -26 -257 -14 -73 -23 -135 -20 -138 6 -6 1112 -7 1112 -1 0 3 18 105 39
228 51 287 65 440 57 598 -26 524 -280 807 -763 849 -65 6 -125 10 -133 10 -8
-1 -53 -5 -100 -10z"/>
<path d="M26465 9504 c-598 -32 -1079 -237 -1465 -624 -376 -376 -600 -868
-686 -1505 -25 -182 -25 -501 0 -649 104 -630 496 -990 1188 -1091 242 -36
614 -29 890 16 729 118 1239 492 1418 1038 24 75 60 231 60 262 0 5 -231 8
-552 7 l-552 -3 -16 -61 c-41 -155 -124 -225 -330 -277 -77 -20 -111 -22 -355
-21 -247 0 -277 2 -349 22 -98 27 -176 62 -226 102 -111 88 -162 259 -145 484
l7 96 1281 2 1282 3 43 129 c240 714 168 1292 -208 1666 -256 255 -617 386
-1105 403 -66 2 -147 2 -180 1z m202 -953 c165 -41 269 -115 326 -230 30 -61
32 -72 32 -171 0 -58 -3 -117 -8 -132 l-7 -28 -761 0 -761 0 6 33 c3 17 31 82
61 144 89 181 211 289 399 355 134 46 235 58 446 54 144 -3 203 -9 267 -25z"/>
<path d="M30360 9500 c-855 -54 -1538 -525 -1771 -1220 -27 -81 -79 -299 -79
-330 0 -7 186 -10 535 -10 l535 0 4 23 c45 227 81 314 165 398 112 111 237
149 521 156 307 8 458 -24 550 -117 62 -61 83 -123 82 -244 -1 -75 -24 -252
-34 -262 -2 -1 -313 -48 -693 -104 -379 -55 -744 -112 -810 -126 -153 -33
-359 -100 -483 -159 -206 -97 -419 -271 -522 -424 -189 -282 -249 -682 -143
-951 39 -98 96 -180 177 -258 199 -188 487 -274 871 -259 481 20 874 179 1196
485 85 80 129 110 129 85 0 -5 -20 -117 -43 -251 -24 -133 -41 -244 -39 -247
3 -3 236 -5 519 -5 402 0 515 3 518 13 10 26 405 2287 415 2372 13 118 13 333
-1 431 -54 386 -245 666 -569 833 -262 135 -630 196 -1030 171z m380 -2354 c0
-2 -11 -43 -25 -90 -89 -307 -291 -479 -653 -557 -137 -29 -462 -38 -580 -16
-154 30 -212 82 -212 192 0 122 45 196 151 249 92 46 131 54 739 145 500 75
580 86 580 77z"/>
</g>
</svg>
